
<svg width="1000px" height="1000px" viewBox="0 0 1000 1000" version="1.1" xmlns="http://www.w3.org/2000/svg" xmlns:xlink="http://www.w3.org/1999/xlink">
    <g id="Page-2" stroke="none" stroke-width="1" fill="none" fill-rule="evenodd">
        <rect id="Rectangle" fill-rule="nonzero" x="0" y="0" width="1000" height="1000"></rect>
        <text id="Dawid" fill="#EAEAEA" font-family="Helvetica" font-size="140" font-weight="normal" letter-spacing="1" alignment-baseline="middle" text-anchor="middle">
            <tspan x="50%" y="164">Dawid</tspan>
        </text>
        <g id="logo" transform="translate(152.000000, 216.000000)">
            <g>
                <path d="M159.5,78 C246.840365,78 317.77552,148.20823 318.97177,235.262765 L319,235.262765 L319,237.5 L319,397 L159.5,397 L157.675631,397 L157.675631,396.978827 C70.4270133,395.997832 0,324.981515 0,237.5 C0,149.408009 71.4115376,78 159.5,78 Z M159.154181,142.802168 C108.17417,142.802168 66.8453208,185.200232 66.8453208,237.496471 C66.8453208,289.432777 107.602511,331.597942 158.099082,332.180188 L158.099082,332.190774 L159.154181,332.190774 L251.463042,332.190774 L251.463042,237.5 L251.463042,236.173186 L251.445398,236.173186 C250.753761,184.483894 209.700155,142.802168 159.154181,142.802168 Z" id="Shape" fill="#FFA70C"></path>
                <path d="M416,415.754651 L416,355 C381.07767,355 352.495469,381.817496 350.156634,415.754651 L350,420.245349 L350,481 C384.92233,481 413.504531,454.182504 415.839806,420.245349 L416,415.754651 Z" id="Path" fill="#FFA70C"></path>
                <path d="M159.5,744 C246.840365,744 317.77552,673.79177 318.97177,586.737235 L319,586.737235 L319,584.5 L319,425 L159.5,425 L157.675631,425 L157.675631,425.021173 C70.4270133,426.002168 0,497.018485 0,584.5 C0,672.584934 71.4115376,744 159.5,744 Z M159.154181,679.194303 C108.17417,679.194303 66.8453208,636.796239 66.8453208,584.5 C66.8453208,532.563695 107.602511,490.398529 158.099082,489.816283 L158.099082,489.805697 L159.154181,489.805697 L251.463042,489.805697 L251.463042,584.5 L251.463042,585.826814 L251.445398,585.826814 C250.753761,637.512577 209.700155,679.194303 159.154181,679.194303 Z" id="Shape" fill="#EAEAEA"></path>
                <path d="M348.003529,0.0273286954 C379.76738,-0.692210996 411.284179,12.5310944 415.233484,71.3323013 L415.233484,206.10138 L514.43199,206.10138 C583.119553,204.754007 603.868406,135.290209 600.939073,80.0408478 L667.74904,80.0408478 C671.031304,169.376639 641.723858,212.841774 602.724908,237.020424 C641.727387,261.199074 671.031304,304.664209 667.74904,394 L600.939073,394 C604.186045,332.807382 593.280456,285.758657 516.729576,267.985321 L415.229955,268.55672 L415.229955,332.966104 C387.503642,335.741975 378.765054,336.390972 348,367.013734 L348,0.0273286954 L348.003529,0.0273286954 Z" id="Path" fill="#EAEAEA"></path>
                <path d="M600,427 L666,427 L665.889876,557.120513 C663.559503,591.130927 635.033748,618 600.184725,618 L600.184725,557.120513 L600,427 Z" id="Path" fill="#EAEAEA"></path>
                <path d="M351,503.805919 C382.271572,503.147477 405.58847,488.05612 417,471 L416.889864,686.215564 C414.55924,720.172877 386.030414,747 351.177639,747 L351.177639,686.215564 L351,503.805919 Z" id="Path" fill="#EAEAEA"></path>
            </g>
        </g>
    </g>
</svg>