
<svg width="346px" height="297px" viewBox="0 0 346 297" version="1.1" xmlns="http://www.w3.org/2000/svg" xmlns:xlink="http://www.w3.org/1999/xlink">
    <g id="Page-2" stroke="none" stroke-width="1" fill="none" fill-rule="evenodd">
        <g id="logo-small" transform="translate(92.000000, 0.000000)">
            <g id="logo">
                <path d="M39.3974551,19.2128514 C60.9710483,19.2128514 78.4924563,36.5064449 78.7879372,57.9495969 L78.7949102,57.9495969 L78.7949102,58.5006693 L78.7949102,97.7884873 L39.3974551,97.7884873 L38.9468249,97.7884873 L38.9468249,97.7832721 C17.395894,97.5416346 0,80.0489944 0,58.5006693 C0,36.8019727 17.6390774,19.2128514 39.3974551,19.2128514 Z M39.3120358,35.1748312 C26.7196678,35.1748312 16.5111945,45.6182634 16.5111945,58.4998001 C16.5111945,71.2926786 26.5784646,81.6787435 39.0514199,81.8221614 L39.0514199,81.824769 L39.3120358,81.824769 L62.1128771,81.824769 L62.1128771,58.5006693 L62.1128771,58.1738503 L62.108519,58.1738503 C61.9376805,45.4418159 51.7971939,35.1748312 39.3120358,35.1748312 Z" id="Shape" fill="#FFA70C"></path>
                <path d="M102.754491,102.408107 L102.754491,87.4431058 C94.1284664,87.4431058 87.0684917,94.0487541 86.4907854,102.408107 L86.4520958,103.514249 L86.4520958,118.47925 C95.0781205,118.47925 102.138095,111.873602 102.714922,103.514249 L102.754491,102.408107 Z" id="Path" fill="#FFA70C"></path>
                <path d="M39.3974551,183.261044 C60.9710483,183.261044 78.4924563,165.967451 78.7879372,144.524299 L78.7949102,144.524299 L78.7949102,143.973226 L78.7949102,104.685408 L39.3974551,104.685408 L38.9468249,104.685408 L38.9468249,104.690623 C17.395894,104.932261 0,122.424901 0,143.973226 C0,165.670184 17.6390774,183.261044 39.3974551,183.261044 Z M39.3120358,167.298195 C26.7196678,167.298195 16.5111945,156.854763 16.5111945,143.973226 C16.5111945,131.180348 26.5784646,120.794283 39.0514199,120.650865 L39.0514199,120.648257 L39.3120358,120.648257 L62.1128771,120.648257 L62.1128771,143.973226 L62.1128771,144.300045 L62.108519,144.300045 C61.9376805,157.031211 51.7971939,167.298195 39.3120358,167.298195 Z" id="Shape" fill="#EAEAEA"></path>
                <path d="M85.9589556,0.00673156621 C93.804817,-0.170504449 101.589655,3.08664173 102.565157,17.5704731 L102.565157,50.766605 L127.067782,50.766605 C144.034021,50.4347219 149.159112,33.324496 148.43555,19.7155502 L164.938011,19.7155502 C165.74875,41.7206178 158.509636,52.4268894 148.876661,58.3825408 C158.510507,64.3381922 165.74875,75.0444639 164.938011,97.0495315 L148.43555,97.0495315 C149.237571,81.9766509 146.543825,70.3876744 127.635299,66.0097711 L102.564285,66.1505174 L102.564285,82.0157471 C95.7157201,82.6994959 93.5572364,82.8593558 85.9580838,90.4023121 L85.9580838,0.00673156621 L85.9589556,0.00673156621 Z" id="Path" fill="#EAEAEA"></path>
                <path d="M148.203593,105.178046 L164.505988,105.178046 L164.478787,137.229149 C163.903171,145.606547 156.857138,152.2249 148.249221,152.2249 L148.249221,137.229149 L148.203593,105.178046 Z" id="Path" fill="#EAEAEA"></path>
                <path d="M86.6991018,124.096773 C94.4233674,123.934586 100.182781,120.217304 103.001497,116.016064 L102.974293,169.027662 C102.398615,177.391981 95.3518238,184 86.7429797,184 L86.7429797,169.027662 L86.6991018,124.096773 Z" id="Path" fill="#EAEAEA"></path>
            </g>
        </g>
        <g id="Podpis" transform="translate(0.000000, 220.000000)" fill="#FFFFFF" fill-opacity="0.648635643" font-family="Helvetica" font-size="32" font-weight="normal" letter-spacing="1" stroke="#EAEAEA">
            <text id="Akademickie-Koło-Apl">
                <tspan x="39.328125" y="31">Akademickie Koło </tspan>
                <tspan x="0.2578125" y="69">Aplikacji Internetowych</tspan>
            </text>
        </g>
    </g>
</svg>